<?xml version="1.0" encoding="UTF-8"?>
<svg width="117px" height="117px" viewBox="0 0 117 117" version="1.1" xmlns="http://www.w3.org/2000/svg" xmlns:xlink="http://www.w3.org/1999/xlink">
    <!-- Generator: sketchtool 51.2 (57519) - http://www.bohemiancoding.com/sketch -->
    <title>AED6D8C9-F202-4445-A927-4EFD18FA565B</title>
    <desc>Created with sketchtool.</desc>
    <defs>
        <rect id="path-1" x="0" y="0" width="77" height="77" rx="25"></rect>
        <filter x="-45.5%" y="-32.5%" width="190.9%" height="190.9%" filterUnits="objectBoundingBox" id="filter-2">
            <feOffset dx="0" dy="10" in="SourceAlpha" result="shadowOffsetOuter1"></feOffset>
            <feGaussianBlur stdDeviation="10" in="shadowOffsetOuter1" result="shadowBlurOuter1"></feGaussianBlur>
            <feColorMatrix values="0 0 0 0 0.932158801   0 0 0 0 0.84134835   0 0 0 0 0.856390572  0 0 0 1 0" type="matrix" in="shadowBlurOuter1"></feColorMatrix>
        </filter>
    </defs>
    <g id="Page-1" stroke="none" stroke-width="1" fill="none" fill-rule="evenodd">
        <g id="landingpage" transform="translate(-255.000000, -1762.000000)" fill-rule="nonzero">
            <g id="what-we-do" transform="translate(172.000000, 1545.000000)">
                <g id="Group-2" transform="translate(103.000000, 227.000000)">
                    <g id="Group-14">
                        <g id="Rectangle-9">
                            <use fill="black" fill-opacity="1" filter="url(#filter-2)" xlink:href="#path-1"></use>
                            <use fill="#FD5A75" xlink:href="#path-1"></use>
                        </g>
                        <g id="monitor" transform="translate(23.000000, 23.000000)" fill="#FFFFFF">
                            <path d="M32,22.2499954 C32,24.8731696 29.839746,27 27.1746032,27 L4.82539683,27 C2.16025397,27 0,24.8731696 0,22.2499954 L0,4.75000463 C0,2.12683044 2.16025397,0 4.82539683,0 L27.1746032,0 C29.839746,0 32,2.12683044 32,4.75000463 L32,22.2499954 Z M30.4761905,4.75000463 C30.4761905,2.9550697 28.9980952,1.50002777 27.1746032,1.50002777 L4.82539683,1.50002777 C3.00190476,1.50052761 1.52380952,2.95556954 1.52380952,4.75000463 L1.52380952,22.2499954 C1.52380952,24.0449303 3.00190476,25.4999722 4.82539683,25.4999722 L27.1746032,25.4999722 C28.9980952,25.4999722 30.4761905,24.0449303 30.4761905,22.2499954 L30.4761905,4.75000463 Z" id="path-1_1_"></path>
                            <path d="M21,31.1820413 C21,31.6340998 20.6463158,32 20.2105263,32 L11.7894737,32 C11.3536842,32 11,31.6340998 11,31.1820413 L11,26.818504 C11,26.3664455 11.3536842,26 11.7894737,26 L20.2105263,26 C20.6463158,26 21,26.3664455 21,26.818504 L21,31.1820413 Z M12.5789474,30.3640825 L19.4210526,30.3640825 L19.4210526,27.6364628 L12.5789474,27.6364628 L12.5789474,30.3640825 Z" id="path-2_1_"></path>
                            <path d="M24.25,32 L7.75,32 C7.336,32 7,31.552 7,31 C7,30.448 7.336,30 7.75,30 L24.25,30 C24.664,30 25,30.448 25,31 C25,31.552 24.664,32 24.25,32 Z" id="path-3_1_"></path>
                            <path d="M7.76088856,23 C7.56654357,23 7.37169115,22.9254343 7.22301469,22.7768102 C6.92566177,22.4795621 6.92566177,21.9981824 7.22301469,21.7004269 L23.7007301,5.22293613 C23.998083,4.92568796 24.4801398,4.92568796 24.7769853,5.22293613 C25.0743382,5.5201843 25.0743382,6.00207127 24.7769853,6.29931944 L8.29926987,22.776303 C8.15059341,22.9254343 7.95574099,23 7.76088856,23 Z" id="path-4_1_"></path>
                            <path d="M16.7253464,21 C16.5397196,21 16.3540928,20.9289583 16.2124557,20.7873583 C15.9291814,20.5041582 15.9291814,20.0455287 16.2124557,19.7623286 L20.7617628,15.2127625 C21.0450371,14.9290792 21.5042701,14.9290792 21.7875443,15.2127625 C22.0708186,15.4959626 22.0708186,15.9545921 21.7875443,16.2377922 L17.2377538,20.7873583 C17.0961167,20.9284751 16.9109733,21 16.7253464,21 Z" id="path-5_1_"></path>
                        </g>
                    </g>
                </g>
            </g>
        </g>
    </g>
</svg>