<?xml version="1.0" encoding="UTF-8"?>
<svg width="13px" height="13px" viewBox="0 0 13 13" version="1.1" xmlns="http://www.w3.org/2000/svg" xmlns:xlink="http://www.w3.org/1999/xlink">
    <!-- Generator: sketchtool 51.2 (57519) - http://www.bohemiancoding.com/sketch -->
    <title>37A3C687-92EE-4AE0-8D34-6528D160C2F1</title>
    <desc>Created with sketchtool.</desc>
    <defs></defs>
    <g id="Page-1" stroke="none" stroke-width="1" fill="none" fill-rule="evenodd">
        <g id="landingpage" transform="translate(-946.000000, -3238.000000)" fill="#FD5A75" fill-rule="nonzero">
            <g id="portfolio" transform="translate(121.000000, 2760.000000)">
                <g id="Group-4" transform="translate(706.000000, 459.000000)">
                    <g id="foreign" transform="translate(119.000000, 19.000000)">
                        <path d="M12.4285412,0 L7.85711611,0 C7.54152961,0 7.28568184,0.255848357 7.28568184,0.571435587 C7.28568184,0.887022816 7.54152961,1.14287117 7.85711611,1.14287117 L11.0490012,1.14287117 L5.16737527,7.02453517 C4.94420824,7.24770271 4.94420824,7.60947523 5.16737527,7.83264276 C5.27892195,7.94421425 5.42516276,8 5.57140358,8 C5.7176444,8 5.86390977,7.94423881 5.975481,7.83261821 L11.8571315,1.95097877 L11.8571315,5.14287117 C11.8571315,5.4584584 12.1129792,5.71430676 12.4285657,5.71430676 C12.7441522,5.71430676 13,5.4584584 13,5.14287117 L13,0.571435587 C12.9999754,0.255848357 12.7441277,0 12.4285412,0 Z" id="Shape"></path>
                        <path d="M10.3888568,5.66665791 C10.0513547,5.66665791 9.77773985,5.94027342 9.77773985,6.27777632 L9.77773985,11.7777894 L1.22220763,11.7777894 L1.22220763,3.22221055 L6.72220763,3.22221055 C7.05970972,3.22221055 7.33332458,2.94859504 7.33332458,2.61109215 C7.33332458,2.27358925 7.05970972,2 6.72220763,2 L0.611116946,2 C0.273614858,2 0,2.27361551 0,2.61111841 L0,12.3889079 C0,12.7263845 0.273614858,13 0.611116946,13 L10.3888831,13 C10.7263851,13 11,12.7263845 11,12.3888816 L11,6.27777632 C10.9999737,5.94027342 10.7263589,5.66665791 10.3888568,5.66665791 Z" id="Shape"></path>
                    </g>
                </g>
            </g>
        </g>
    </g>
</svg>