<?xml version="1.0" encoding="UTF-8"?>
<svg width="24px" height="24px" viewBox="0 0 24 24" version="1.1" xmlns="http://www.w3.org/2000/svg" xmlns:xlink="http://www.w3.org/1999/xlink">
    <!-- Generator: sketchtool 51.2 (57519) - http://www.bohemiancoding.com/sketch -->
    <title>80B0D07B-ED71-4666-9BC2-6F21814C8AF8</title>
    <desc>Created with sketchtool.</desc>
    <defs></defs>
    <g id="Page-1" stroke="none" stroke-width="1" fill="none" fill-rule="evenodd">
        <g id="landingpage" transform="translate(-736.000000, -5305.000000)" fill="#FFFFFF" fill-rule="nonzero">
            <g id="footer" transform="translate(0.000000, 5068.000000)">
                <g id="Group-10" transform="translate(515.000000, 127.000000)">
                    <g id="Group-5" transform="translate(185.000000, 92.000000)">
                        <g id="Group" transform="translate(36.000000, 18.000000)">
                            <path d="M5.25,24 C5.142,24 5.0325,23.976 4.932,23.9295 C4.668,23.805 4.5,23.541 4.5,23.25 L4.5,19.5 L3,19.5 C1.3455,19.5 0,18.1545 0,16.5 L0,3 C0,1.3455 1.3455,0 3,0 L21,0 C22.6545,0 24,1.3455 24,3 L24,16.5 C24,18.1545 22.6545,19.5 21,19.5 L10.9215,19.5 L5.73,23.826 C5.5935,23.9415 5.4225,24 5.25,24 Z M3,1.5 C2.1735,1.5 1.5,2.1735 1.5,3 L1.5,16.5 C1.5,17.328 2.1735,18 3,18 L5.25,18 C5.664,18 6,18.336 6,18.75 L6,21.6495 L10.17,18.1755 C10.305,18.0615 10.4745,18 10.65,18 L21,18 C21.828,18 22.5,17.328 22.5,16.5 L22.5,3 C22.5,2.1735 21.828,1.5 21,1.5 L3,1.5 Z" id="Shape"></path>
                            <path d="M8.25,12 L3.75,12 C3.336,12 3,11.664 3,11.25 L3,5.25 C3,4.836 3.336,4.5 3.75,4.5 L8.25,4.5 C8.664,4.5 9,4.836 9,5.25 L9,11.25 C9,11.664 8.664,12 8.25,12 Z M4.5,10.5 L7.5,10.5 L7.5,6 L4.5,6 L4.5,10.5 Z" id="Shape"></path>
                            <path d="M20.25,6 L11.25,6 C10.836,6 10.5,5.664 10.5,5.25 C10.5,4.836 10.836,4.5 11.25,4.5 L20.25,4.5 C20.664,4.5 21,4.836 21,5.25 C21,5.664 20.664,6 20.25,6 Z" id="Shape"></path>
                            <path d="M20.25,10.5 L11.25,10.5 C10.836,10.5 10.5,10.164 10.5,9.75 C10.5,9.336 10.836,9 11.25,9 L20.25,9 C20.664,9 21,9.336 21,9.75 C21,10.164 20.664,10.5 20.25,10.5 Z" id="Shape"></path>
                            <path d="M15.75,15 L11.25,15 C10.836,15 10.5,14.664 10.5,14.25 C10.5,13.836 10.836,13.5 11.25,13.5 L15.75,13.5 C16.164,13.5 16.5,13.836 16.5,14.25 C16.5,14.664 16.164,15 15.75,15 Z" id="Shape"></path>
                        </g>
                    </g>
                </g>
            </g>
        </g>
    </g>
</svg>