<?xml version="1.0" encoding="UTF-8"?>
<svg width="55px" height="55px" viewBox="0 0 55 55" version="1.1" xmlns="http://www.w3.org/2000/svg" xmlns:xlink="http://www.w3.org/1999/xlink">
    <!-- Generator: sketchtool 51.2 (57519) - http://www.bohemiancoding.com/sketch -->
    <title>75253879-CF32-4970-BA8A-80011982E924</title>
    <desc>Created with sketchtool.</desc>
    <defs>
        <linearGradient x1="76.95297%" y1="84.0501365%" x2="33.9711653%" y2="25.3166095%" id="linearGradient-1">
            <stop stop-color="#953099" offset="0%"></stop>
            <stop stop-color="#CF2373" offset="100%"></stop>
        </linearGradient>
    </defs>
    <g id="Page-1" stroke="none" stroke-width="1" fill="none" fill-rule="evenodd">
        <g id="landingpage" transform="translate(-736.000000, -5514.000000)" fill-rule="nonzero">
            <g id="footer" transform="translate(0.000000, 5068.000000)">
                <g id="Group-12" transform="translate(736.000000, 446.000000)">
                    <rect id="Rectangle-11" fill="url(#linearGradient-1)" x="0" y="0" width="55" height="55" rx="18"></rect>
                    <g id="noun_1150990_cc" transform="translate(16.000000, 16.000000)" fill="#FFFFFF">
                        <path d="M17.7232447,0.681663258 L6.81663258,0.681663258 C3.42838258,0.681663258 0.681663258,3.42838258 0.681663258,6.81663258 L0.681663258,17.7232447 C0.681663258,21.1114947 3.42838258,23.858214 6.81663258,23.858214 L17.7232447,23.858214 C19.3503397,23.858214 20.9107932,23.2118531 22.0613231,22.0613231 C23.2118531,20.9107932 23.858214,19.3503397 23.858214,17.7232447 L23.858214,6.81663258 C23.858214,3.42838258 21.1114947,0.681663258 17.7232447,0.681663258 Z M22.4948875,17.7232447 C22.4948875,20.3585503 20.3585503,22.4948875 17.7232447,22.4948875 L6.81663258,22.4948875 C4.18132703,22.4948875 2.04498978,20.3585503 2.04498978,17.7232447 L2.04498978,6.81663258 C2.04498978,4.18132703 4.18132703,2.04498978 6.81663258,2.04498978 L17.7232447,2.04498978 C20.3585503,2.04498978 22.4948875,4.18132703 22.4948875,6.81663258 L22.4948875,17.7232447 Z" id="Shape"></path>
                        <path d="M12.2699387,6.81663258 C9.25816087,6.81663258 6.81663258,9.25816087 6.81663258,12.2699387 C6.81663258,15.2817164 9.25816087,17.7232447 12.2699387,17.7232447 C15.2817164,17.7232447 17.7232447,15.2817164 17.7232447,12.2699387 C17.7232447,10.823632 17.1487016,9.43656222 16.1260084,8.41386895 C15.1033151,7.39117568 13.7162453,6.81663258 12.2699387,6.81663258 Z M12.2699387,16.3599182 C10.0111053,16.3599182 8.1799591,14.528772 8.1799591,12.2699387 C8.1799591,10.0111053 10.0111053,8.1799591 12.2699387,8.1799591 C14.528772,8.1799591 16.3599182,10.0111053 16.3599182,12.2699387 C16.3599182,13.3546687 15.9290109,14.394971 15.1619909,15.1619909 C14.394971,15.9290109 13.3546687,16.3599182 12.2699387,16.3599182 Z" id="Shape"></path>
                        <path d="M18.404908,4.77164281 C17.6519635,4.77164281 17.0415815,5.38202488 17.0415815,6.13496933 C17.0415815,6.88791377 17.6519635,7.49829584 18.404908,7.49829584 C19.1578524,7.49829584 19.7682345,6.88791377 19.7682345,6.13496933 C19.7682345,5.38202488 19.1578524,4.77164281 18.404908,4.77164281 Z" id="Shape"></path>
                    </g>
                </g>
            </g>
        </g>
    </g>
</svg>