<?xml version="1.0" encoding="UTF-8"?>
<svg width="117px" height="117px" viewBox="0 0 117 117" version="1.1" xmlns="http://www.w3.org/2000/svg" xmlns:xlink="http://www.w3.org/1999/xlink">
    <!-- Generator: sketchtool 51.2 (57519) - http://www.bohemiancoding.com/sketch -->
    <title>719D092F-C0D1-45D2-824B-FFF3E7CC93D9</title>
    <desc>Created with sketchtool.</desc>
    <defs>
        <rect id="path-1" x="0" y="0" width="77" height="77" rx="25"></rect>
        <filter x="-45.5%" y="-32.5%" width="190.9%" height="190.9%" filterUnits="objectBoundingBox" id="filter-2">
            <feOffset dx="0" dy="10" in="SourceAlpha" result="shadowOffsetOuter1"></feOffset>
            <feGaussianBlur stdDeviation="10" in="shadowOffsetOuter1" result="shadowBlurOuter1"></feGaussianBlur>
            <feColorMatrix values="0 0 0 0 0.932158801   0 0 0 0 0.84134835   0 0 0 0 0.856390572  0 0 0 1 0" type="matrix" in="shadowBlurOuter1"></feColorMatrix>
        </filter>
    </defs>
    <g id="Page-1" stroke="none" stroke-width="1" fill="none" fill-rule="evenodd">
        <g id="landingpage" transform="translate(-806.000000, -2206.000000)" fill-rule="nonzero">
            <g id="what-we-do" transform="translate(172.000000, 1545.000000)">
                <g id="Group-2-Copy" transform="translate(653.000000, 671.000000)">
                    <g id="Group-13" transform="translate(1.000000, 0.000000)">
                        <g id="Rectangle-9">
                            <use fill="black" fill-opacity="1" filter="url(#filter-2)" xlink:href="#path-1"></use>
                            <use fill="#FD5A75" xlink:href="#path-1"></use>
                        </g>
                        <g id="smartphone" transform="translate(29.000000, 22.000000)" fill="#FFFFFF">
                            <path d="M20,28.0237389 C20,30.7718625 17.6509593,33 14.752907,33 L5.24709302,33 C2.3490407,33 0,30.7718625 0,28.0237389 L0,4.97626113 C0,2.22813755 2.3490407,0 5.24709302,0 L14.752907,0 C17.6509593,0 20,2.22813755 20,4.97626113 L20,28.0237389 Z M18.3430233,4.97626113 C18.3430233,3.09582824 16.7357558,1.57147844 14.752907,1.57147844 L5.24709302,1.57147844 C3.26424419,1.57147844 1.65697674,3.09582824 1.65697674,4.97626113 L1.65697674,28.0237389 C1.65697674,29.9041718 3.26424419,31.4285216 5.24709302,31.4285216 L14.752907,31.4285216 C16.7357558,31.4285216 18.3430233,29.9041718 18.3430233,28.0237389 L18.3430233,4.97626113 Z" id="path-1_10_"></path>
                            <path d="M20,27.282827 C20,27.6791846 19.687907,28 19.3023256,28 L0.697674419,28 C0.312093023,28 0,27.6791846 0,27.282827 L0,6.71765115 C0,6.32129352 0.312093023,6 0.697674419,6 L19.3023256,6 C19.687907,6 20,6.32129352 20,6.71765115 L20,27.282827 Z M1.25,26.7777778 L18.75,26.7777778 L18.75,7.22222222 L1.25,7.22222222 L1.25,26.7777778 Z" id="path-2_9_"></path>
                            <path d="M11,3 C11,3.55222389 10.5525,4 10,4 C9.448,4 9,3.55222389 9,3 C9,2.44777611 9.448,2 10,2 C10.5525,2 11,2.44777611 11,3 Z" id="path-3_9_"></path>
                            <path d="M10.25,30 L7.75,30 C7.336,30 7,29.7760746 7,29.4998334 C7,29.2239254 7.336,29 7.75,29 L10.25,29 C10.664,29 11,29.2239254 11,29.4998334 C11,29.7760746 10.6635,30 10.25,30 Z" id="path-4_9_"></path>
                            <path d="M4.63727799,22 C4.47418919,22 4.31110039,21.9380102 4.18666023,21.8136061 C3.93777992,21.5647978 3.93777992,21.1614397 4.18666023,20.9126315 L13.912529,11.1866062 C14.1614093,10.9377979 14.5644595,10.9377979 14.8133398,11.1866062 C15.0622201,11.435839 15.0622201,11.8387726 14.8133398,12.0875808 L5.08747104,21.8136061 C4.96388031,21.9380102 4.80079151,22 4.63727799,22 Z" id="path-5_8_"></path>
                            <path d="M10.6224575,22 C10.4630552,22 10.303653,21.9394159 10.1824408,21.8178329 C9.93918638,21.5746667 9.93918638,21.1804554 10.1824408,20.9372893 L12.9371108,18.1823746 C13.1803653,17.9392085 13.5743047,17.9392085 13.8175592,18.1823746 C14.0608136,18.4259557 14.0608136,18.8197521 13.8175592,19.0629182 L11.0628892,21.8178329 C10.9408468,21.9394159 10.7818597,22 10.6224575,22 Z" id="path-6_4_"></path>
                        </g>
                    </g>
                </g>
            </g>
        </g>
    </g>
</svg>